<svg width="50" height="50" viewBox="0 0 50 50" fill="none" xmlns="http://www.w3.org/2000/svg">
<mask id="mask0_6_395" style="mask-type:alpha" maskUnits="userSpaceOnUse" x="0" y="0" width="50" height="50">
<rect width="50" height="50" fill="#D9D9D9"/>
</mask>
<g mask="url(#mask0_6_395)">
<path d="M22.0833 27.9167L17.6042 23.4375C17.2222 23.0556 16.7361 22.8646 16.1458 22.8646C15.5556 22.8646 15.0694 23.0556 14.6875 23.4375C14.3056 23.8194 14.1146 24.3056 14.1146 24.8958C14.1146 25.4861 14.3056 25.9722 14.6875 26.3542L20.625 32.2917C21.0417 32.7083 21.5278 32.9167 22.0833 32.9167C22.6389 32.9167 23.125 32.7083 23.5417 32.2917L35.3125 20.5208C35.6944 20.1389 35.8854 19.6528 35.8854 19.0625C35.8854 18.4722 35.6944 17.9861 35.3125 17.6042C34.9306 17.2222 34.4444 17.0312 33.8542 17.0312C33.2639 17.0312 32.7778 17.2222 32.3958 17.6042L22.0833 27.9167ZM10.4167 43.75C9.27083 43.75 8.28993 43.342 7.47396 42.526C6.65799 41.7101 6.25 40.7292 6.25 39.5833V10.4167C6.25 9.27083 6.65799 8.28993 7.47396 7.47396C8.28993 6.65799 9.27083 6.25 10.4167 6.25H39.5833C40.7292 6.25 41.7101 6.65799 42.526 7.47396C43.342 8.28993 43.75 9.27083 43.75 10.4167V39.5833C43.75 40.7292 43.342 41.7101 42.526 42.526C41.7101 43.342 40.7292 43.75 39.5833 43.75H10.4167ZM10.4167 39.5833H39.5833V10.4167H10.4167V39.5833Z" fill="#048B79"/>
</g>
</svg>
