<svg width="50" height="50" viewBox="0 0 50 50" fill="none" xmlns="http://www.w3.org/2000/svg">
<mask id="mask0_6_429" style="mask-type:alpha" maskUnits="userSpaceOnUse" x="0" y="0" width="50" height="50">
<rect width="50" height="50" fill="#D9D9D9"/>
</mask>
<g mask="url(#mask0_6_429)">
<path d="M10.4167 43.75C9.27083 43.75 8.28993 43.342 7.47396 42.526C6.65799 41.7101 6.25 40.7292 6.25 39.5833V10.4167C6.25 9.27083 6.65799 8.28993 7.47396 7.47396C8.28993 6.65799 9.27083 6.25 10.4167 6.25H39.5833C40.7292 6.25 41.7101 6.65799 42.526 7.47396C43.342 8.28993 43.75 9.27083 43.75 10.4167V39.5833C43.75 40.7292 43.342 41.7101 42.526 42.526C41.7101 43.342 40.7292 43.75 39.5833 43.75H10.4167ZM10.4167 39.5833H39.5833V10.4167H10.4167V39.5833Z" fill="#FF5964"/>
</g>
<mask id="mask1_6_429" style="mask-type:alpha" maskUnits="userSpaceOnUse" x="0" y="0" width="50" height="50">
<rect width="50" height="50" fill="#D9D9D9"/>
</mask>
<g mask="url(#mask1_6_429)">
<path fill-rule="evenodd" clip-rule="evenodd" d="M29.4792 32.3958L25 27.9167L20.5208 32.3958C20.1389 32.7778 19.6528 32.9687 19.0625 32.9687C18.4722 32.9687 17.9861 32.7778 17.6042 32.3958C17.2222 32.0139 17.0312 31.5278 17.0312 30.9375C17.0312 30.3472 17.2222 29.8611 17.6042 29.4792L22.0833 25L17.6042 20.5208C17.2222 20.1389 17.0312 19.6528 17.0312 19.0625C17.0312 18.4722 17.2222 17.9861 17.6042 17.6042C17.9861 17.2222 18.4722 17.0312 19.0625 17.0312C19.6528 17.0312 20.1389 17.2222 20.5208 17.6042L25 22.0833L29.4792 17.6042C29.8611 17.2222 30.3472 17.0312 30.9375 17.0312C31.5278 17.0312 32.0139 17.2222 32.3958 17.6042C32.7778 17.9861 32.9687 18.4722 32.9687 19.0625C32.9687 19.6528 32.7778 20.1389 32.3958 20.5208L27.9167 25L32.3958 29.4792C32.7778 29.8611 32.9687 30.3472 32.9687 30.9375C32.9687 31.5278 32.7778 32.0139 32.3958 32.3958C32.0139 32.7778 31.5278 32.9687 30.9375 32.9687C30.3472 32.9687 29.8611 32.7778 29.4792 32.3958Z" fill="#FF5964"/>
</g>
</svg>
